# Blender 4.3.1
# www.blender.org
o Cube
v 1.000000 1.000000 -1.000000
v 1.000000 -1.000000 -1.000000
v 1.000000 1.000000 1.000000
v 1.000000 -1.000000 1.000000
v -1.000000 1.000000 -1.000000
v -1.000000 -1.000000 -1.000000
v -1.000000 1.000000 1.000000
v -1.000000 -1.000000 1.000000
vn -0.0000 1.0000 -0.0000
vn -0.0000 -0.0000 1.0000
vn -1.0000 -0.0000 -0.0000
vn -0.0000 -1.0000 -0.0000
vn 1.0000 -0.0000 -0.0000
vn -0.0000 -0.0000 -1.0000
vt 0.605108 0.997333
vt 0.304000 0.724143
vt 0.605108 0.724143
vt 0.002179 0.998653
vt 0.300295 0.723586
vt 0.300294 0.998653
vt 0.303333 0.719365
vt 0.602932 0.444426
vt 0.602932 0.719365
vt 0.904515 0.722103
vt 0.605476 0.446219
vt 0.904515 0.446219
vt 0.604997 0.997085
vt 0.904807 0.725055
vt 0.904807 0.997085
vt 0.003948 0.722205
vt 0.302743 0.446703
vt 0.302743 0.722205
vt 0.304000 0.997333
vt 0.002179 0.723586
vt 0.303333 0.444426
vt 0.605476 0.722103
vt 0.604997 0.725055
vt 0.003948 0.446703
s 0
f 5/1/1 3/2/1 1/3/1
f 3/4/2 8/5/2 4/6/2
f 7/7/3 6/8/3 8/9/3
f 2/10/4 8/11/4 6/12/4
f 1/13/5 4/14/5 2/15/5
f 5/16/6 2/17/6 6/18/6
f 5/1/1 7/19/1 3/2/1
f 3/4/2 7/20/2 8/5/2
f 7/7/3 5/21/3 6/8/3
f 2/10/4 4/22/4 8/11/4
f 1/13/5 3/23/5 4/14/5
f 5/16/6 1/24/6 2/17/6
